# xmcd
#
# Track frame offsets:
#	150
#	18071
#	34914
#	50154
#	64680
#	83041
#	97840
#	112989
#	130567
#	151444
#	164660
#	177579
#	194734
#	212973
#	226776
#	244948
#	265019
#
# Disc length: 3751 seconds
#
# Revision: 1
# Processed by: cddbd v1.5.1PL0 Copyright (c) Steve Scherf et al.
# Submitted via: audiograbber 1.80
#
DISCID=e50ea511
DTITLE=Various Artist - ERG NCT 127
DYEAR=1900
DGENRE=
TTITLE0=Brooks and Dunn - It's Getting Better All The Time
TTITLE1=Randy Travis - Four Walls
TTITLE2=Trace Adkins - Songs About Me
TTITLE3=Hank Williams Jr. - Devil In A Bottle
TTITLE4=Doug Stone - Georgia
TTITLE5=Nitty Gritty Dirt Band - It's A New Day
TTITLE6=Sheryl Crow - No Depression In Heaven
TTITLE7=Joe Diffie - If I Could Only Bring You Back
TTITLE8=Charlie Robinson - El Cerrito Place
TTITLE9=Alison Krauss And Union Staion - Restless
TTITLE10=David Bell - Louisianna Melody
TTITLE11=Jay Teter - Football, Beer And You
TTITLE12=Erica Dawson - First Time I Ever Saw Your Face, The
TTITLE13=Holly James - What's The Matter Baby
TTITLE14=Jerrfrey Steele - Once A Cowboy
TTITLE15=Robert Earl Keen - Out Here In The Middle
TTITLE16=Ray Herndon - My Dog Thinks I'm Elvis
EXTD=
EXTT0=
EXTT1=
EXTT2=
EXTT3=
EXTT4=
EXTT5=
EXTT6=
EXTT7=
EXTT8=
EXTT9=
EXTT10=
EXTT11=
EXTT12=
EXTT13=
EXTT14=
EXTT15=
EXTT16=
PLAYORDER=
